
<svg version="1.1" id="Layer_1" xmlns="http://www.w3.org/2000/svg" xmlns:xlink="http://www.w3.org/1999/xlink" x="0px" y="0px"
 viewBox="0 0 50 50" enable-background="new 0 0 50 50" xml:space="preserve">
<path class="color-fill" fill-rule="evenodd" clip-rule="evenodd" fill="#FFFFFF" d="M37.371,21.843c0,2.847,0.013,5.694-0.004,8.54
	c-0.03,5.518-3.739,10.246-9.086,11.609c-6.84,1.744-13.845-2.906-14.762-9.881c-0.223-1.701-0.155-3.445-0.162-5.17
	c-0.019-4.604-0.014-9.206-0.003-13.808c0.008-3.197,1.938-6.007,4.915-7.055c0.812-0.286,1.708-0.451,2.569-0.467
	c3.015-0.055,6.031-0.031,9.048-0.019c4.136,0.017,7.467,3.356,7.482,7.5C37.381,16.009,37.371,18.926,37.371,21.843z
	 M14.861,19.112c0,0.159,0,0.284,0,0.409c0,3.625-0.008,7.249,0.004,10.874c0.019,5.512,4.289,10.059,9.786,10.439
	c6.007,0.416,11.175-4.361,11.205-10.379c0.019-3.652,0.005-7.306,0.005-10.959c0-0.123-0.014-0.246-0.021-0.384
	C28.85,19.112,21.888,19.112,14.861,19.112z M24.589,17.571c0-3.518,0-6.979,0-10.469c-1.277,0-2.521-0.008-3.767,0.001
	c-3.315,0.025-5.94,2.663-5.958,5.983c-0.007,1.359-0.003,2.719-0.003,4.078c0,0.135,0,0.27,0,0.406
	C18.14,17.571,21.351,17.571,24.589,17.571z M26.133,7.016c0,3.609,0,7.071,0,10.549c3.249,0,6.47,0,9.729,0
	c0-0.124,0-0.219,0-0.315c-0.001-1.43,0.011-2.86-0.005-4.291c-0.029-2.669-1.905-5.156-4.535-5.641
	C29.645,7.01,27.891,7.105,26.133,7.016z"/>
</svg>
