
<svg version="1.1" id="Layer_1" xmlns="http://www.w3.org/2000/svg" xmlns:xlink="http://www.w3.org/1999/xlink" x="0px" y="0px"
	 viewBox="0 0 50 50" enable-background="new 0 0 50 50" xml:space="preserve">
<path class="color-fill" fill-rule="evenodd" clip-rule="evenodd" fill="#FFFFFF" d="M25.108,4.807c4.741,11.374,9.444,22.654,14.169,33.988
	c-4.48,0-8.896,0-13.361,0c0,1.807,0,3.58,0,5.373c-0.529,0-1.009,0-1.521,0c0-1.775,0-3.539,0-5.346c-4.486,0-8.94,0-13.466,0
	C15.662,27.471,20.368,16.18,25.108,4.807z M30.254,29.662c-0.119,0.104-0.215,0.188-0.311,0.266
	c-1.266,1.047-2.535,2.086-3.789,3.145c-0.133,0.111-0.236,0.332-0.24,0.504c-0.023,1.09-0.012,2.18-0.012,3.27
	c0,0.137,0,0.273,0,0.416c3.721,0,7.391,0,11.105,0c-3.967-9.518-7.916-18.992-11.899-28.546
	C21.123,18.276,17.17,27.76,13.21,37.262c3.753,0,7.45,0,11.175,0c0-1.271,0.006-2.514-0.009-3.756
	c-0.001-0.113-0.11-0.25-0.207-0.33c-0.825-0.693-1.659-1.375-2.488-2.061c-0.569-0.471-1.137-0.941-1.722-1.428
	c0.334-0.404,0.641-0.773,0.955-1.154c1.161,0.953,2.283,1.875,3.471,2.85c0-0.568,0.002-1.039-0.001-1.51
	c-0.005-0.629,0.157-1.328-0.069-1.861c-0.229-0.535-0.856-0.893-1.292-1.346c-0.763-0.793-1.512-1.598-2.29-2.424
	c0.262-0.274,0.594-0.621,0.943-0.987c0.896,0.872,1.77,1.723,2.724,2.654c0-1.955,0-3.792,0-5.62c0.524,0,1.003,0,1.521,0
	c0,1.894,0,3.756,0,5.695c1.162-0.957,2.264-1.864,3.385-2.788c0.326,0.397,0.631,0.77,0.951,1.162
	c-1.109,0.917-2.148,1.878-3.293,2.691c-0.846,0.6-1.215,1.271-1.076,2.299c0.084,0.609,0.016,1.24,0.016,1.957
	c1.178-0.969,2.279-1.875,3.402-2.797C29.623,28.895,29.924,29.258,30.254,29.662z"/>
</svg>
