
<svg version="1.1" id="Layer_1" xmlns="http://www.w3.org/2000/svg" xmlns:xlink="http://www.w3.org/1999/xlink" x="0px" y="0px"
 viewBox="0 0 50 50" enable-background="new 0 0 50 50" xml:space="preserve">
<path class="color-fill" fill-rule="evenodd" clip-rule="evenodd" fill="#FFFFFF" d="M28.194,42.207c-0.251,1.787-1.318,2.877-2.872,2.953
	c-1.617,0.08-2.692-0.92-3.151-2.934c-0.32-0.062-0.65-0.102-0.964-0.193c-1.446-0.432-2.379-1.711-2.382-3.283
	c-0.007-3.15-0.005-6.301,0.005-9.451c0.001-0.299-0.07-0.486-0.339-0.66c-4.283-2.779-6.412-7.74-5.479-12.73
	c0.906-4.848,4.702-8.727,9.592-9.803C29.597,4.566,36.615,9.483,37.447,16.6c0.598,5.111-1.341,9.135-5.573,12.051
	c-0.24,0.164-0.34,0.318-0.339,0.613c0.012,3.061-0.049,6.121,0.03,9.18C31.612,40.271,30.51,42.049,28.194,42.207z M22.862,21.009
	c-0.699,0-1.364,0.035-2.024-0.008c-1.273-0.083-2.363-0.964-2.758-2.171c-0.402-1.235-0.041-2.597,0.946-3.423
	c1.005-0.842,2.146-1.042,3.353-0.522c1.261,0.542,1.894,1.558,1.956,2.92c0.025,0.57,0.004,1.143,0.004,1.74
	c0.588,0,1.123,0,1.737,0c0-0.721-0.044-1.417,0.009-2.106c0.124-1.618,1.586-2.849,3.286-2.816c1.599,0.032,3.001,1.38,3.077,2.959
	c0.094,1.92-1.257,3.385-3.185,3.443c-0.57,0.017-1.142,0.003-1.728,0.003c0,4.388,0,8.713,0,13.064c0.852,0,1.676,0,2.55,0
	c0-0.186,0-0.348,0-0.51c0-1.637,0.02-3.271-0.014-4.908c-0.01-0.482,0.132-0.734,0.562-0.98c4.035-2.316,6.198-7.005,5.309-11.43
	c-1.198-5.965-6.513-9.707-12.529-8.824c-5.03,0.739-9.094,5.34-9.143,10.424c-0.043,4.409,1.886,7.729,5.687,9.957
	c0.239,0.141,0.333,0.285,0.331,0.566c-0.014,1.695-0.007,3.393-0.007,5.09c0,0.191,0,0.385,0,0.605c0.886,0,1.722,0,2.581,0
	C22.862,29.734,22.862,25.422,22.862,21.009z M24.379,21.052c0,4.375,0,8.708,0,13.04c0.564,0,1.09,0,1.638,0
	c0-4.355,0-8.686,0-13.04C25.458,21.052,24.935,21.052,24.379,21.052z M30.087,35.602c-3.294,0-6.527,0-9.767,0
	c0,0.623,0,1.215,0,1.795c3.275,0,6.508,0,9.767,0c0-0.457,0-0.881,0-1.303C30.087,35.943,30.087,35.793,30.087,35.602z
	 M20.305,38.914c0.086,1.025,0.783,1.781,1.734,1.793c2.105,0.027,4.211,0.029,6.316,0c0.943-0.012,1.705-0.857,1.698-1.793
	C26.805,38.914,23.556,38.914,20.305,38.914z M22.881,19.506c0-0.524,0.005-1.051-0.003-1.577c-0.002-0.166-0.021-0.333-0.057-0.494
	c-0.183-0.835-0.93-1.396-1.794-1.355c-0.859,0.041-1.553,0.708-1.649,1.589c-0.088,0.795,0.457,1.69,1.258,1.814
	C21.352,19.594,22.1,19.506,22.881,19.506z M27.537,19.545c0.698,0,1.352,0.048,1.995-0.011c0.871-0.081,1.493-0.882,1.465-1.784
	c-0.028-0.873-0.744-1.616-1.61-1.67c-0.896-0.057-1.745,0.55-1.835,1.404C27.481,18.153,27.537,18.835,27.537,19.545z
	 M23.718,42.203c-0.012,0.834,0.617,1.482,1.435,1.504c0.837,0.023,1.514-0.639,1.528-1.504
	C25.693,42.203,24.705,42.203,23.718,42.203z"/>
</svg>
