
<svg version="1.1" id="Layer_1" xmlns="http://www.w3.org/2000/svg" xmlns:xlink="http://www.w3.org/1999/xlink" x="0px" y="0px"
	 width="50px" height="50px" viewBox="0 0 50 50" enable-background="new 0 0 50 50" xml:space="preserve">
<g>
	<path class="color-stroke" fill-rule="evenodd" clip-rule="evenodd" fill="none" stroke="#FFFFFF" stroke-width="1.5" stroke-miterlimit="10" d="
		M14.834,43.191c-1.674,0-3.348,0.004-5.021,0c-0.494,0-0.976-0.084-1.425-0.299c-0.832-0.396-1.334-1.055-1.512-1.959
		c-0.069-0.35-0.074-0.701-0.061-1.055c0.016-0.385,0.025-0.77,0.064-1.152c0.097-0.936,0.266-1.857,0.638-2.73
		c0.215-0.504,0.488-0.973,0.864-1.379c0.468-0.504,1.048-0.801,1.719-0.926c0.198-0.037,0.404-0.043,0.605-0.062
		c0.091-0.008,0.176,0.01,0.253,0.057c0.163,0.098,0.327,0.193,0.487,0.297c0.271,0.174,0.538,0.357,0.813,0.525
		c0.347,0.213,0.727,0.354,1.113,0.477c0.549,0.174,1.111,0.258,1.688,0.24c0.53-0.018,1.043-0.125,1.545-0.295
		c0.507-0.17,0.974-0.412,1.411-0.719c0.217-0.15,0.445-0.287,0.665-0.434c0.177-0.119,0.363-0.162,0.577-0.146
		c0.609,0.043,1.172,0.217,1.679,0.561c0.375,0.254,0.666,0.592,0.911,0.969c0.384,0.588,0.634,1.232,0.799,1.91
		c0.166,0.684,0.281,1.373,0.315,2.072c0.02,0.408,0.036,0.814,0.03,1.223c-0.011,0.6-0.157,1.164-0.514,1.658
		c-0.407,0.564-0.963,0.908-1.636,1.068c-0.305,0.074-0.615,0.102-0.928,0.102c-1.695,0-3.389,0-5.083,0
		C14.834,43.193,14.834,43.193,14.834,43.191z"/>
	<path class="color-stroke" fill-rule="evenodd" clip-rule="evenodd" fill="none" stroke="#FFFFFF" stroke-width="1.5" stroke-miterlimit="10" d="
		M19.32,28.814c0.045,2.406-2.017,4.459-4.408,4.416c-2.392,0.049-4.431-1.996-4.431-4.416c0.001-2.414,2.035-4.461,4.427-4.412
		C17.309,24.357,19.364,26.418,19.32,28.814z"/>
	<path class="color-stroke" fill-rule="evenodd" clip-rule="evenodd" fill="none" stroke="#FFFFFF" stroke-width="1.5" stroke-miterlimit="10" d="
		M35.029,43.141c-1.674,0-3.348,0.004-5.021,0c-0.494,0-0.975-0.084-1.424-0.299c-0.832-0.398-1.334-1.055-1.513-1.959
		c-0.069-0.35-0.074-0.701-0.06-1.055c0.016-0.385,0.025-0.77,0.064-1.152c0.096-0.938,0.265-1.857,0.637-2.73
		c0.215-0.504,0.488-0.973,0.864-1.379c0.468-0.504,1.048-0.801,1.719-0.926c0.198-0.037,0.404-0.043,0.606-0.062
		c0.09-0.008,0.176,0.01,0.252,0.057c0.164,0.098,0.328,0.193,0.487,0.297c0.272,0.174,0.538,0.357,0.813,0.525
		c0.348,0.213,0.727,0.354,1.113,0.477c0.549,0.174,1.111,0.258,1.688,0.24c0.531-0.018,1.043-0.125,1.545-0.295
		c0.507-0.17,0.975-0.412,1.412-0.719c0.217-0.15,0.444-0.287,0.664-0.434c0.177-0.119,0.363-0.162,0.577-0.146
		c0.609,0.043,1.172,0.217,1.679,0.561c0.375,0.254,0.666,0.592,0.912,0.969c0.383,0.588,0.633,1.232,0.799,1.91
		c0.166,0.682,0.281,1.373,0.314,2.072c0.02,0.408,0.036,0.814,0.03,1.221c-0.011,0.6-0.157,1.164-0.513,1.66
		c-0.408,0.564-0.964,0.906-1.637,1.068c-0.305,0.072-0.615,0.102-0.928,0.102c-1.695,0-3.389,0-5.082,0
		C35.029,43.143,35.029,43.143,35.029,43.141z"/>
	<path class="color-stroke" fill-rule="evenodd" clip-rule="evenodd" fill="none" stroke="#FFFFFF" stroke-width="1.5" stroke-miterlimit="10" d="
		M39.516,28.764c0.045,2.406-2.018,4.459-4.409,4.416c-2.392,0.049-4.431-1.996-4.431-4.416c0.001-2.414,2.035-4.461,4.427-4.412
		C37.504,24.305,39.559,26.367,39.516,28.764z"/>
	<path class="color-stroke" fill-rule="evenodd" clip-rule="evenodd" fill="none" stroke="#FFFFFF" stroke-width="1.5" stroke-miterlimit="10" d="
		M24.308,21.944c-1.674,0-3.348,0.003-5.021,0c-0.493,0-0.975-0.084-1.424-0.298c-0.832-0.398-1.334-1.055-1.513-1.959
		c-0.068-0.35-0.074-0.702-0.06-1.054c0.016-0.385,0.025-0.771,0.064-1.153c0.096-0.937,0.265-1.858,0.637-2.73
		c0.216-0.504,0.489-0.973,0.864-1.379c0.469-0.503,1.049-0.801,1.719-0.926c0.199-0.037,0.404-0.042,0.606-0.062
		c0.09-0.009,0.176,0.009,0.252,0.056c0.164,0.098,0.328,0.194,0.487,0.297c0.272,0.174,0.538,0.358,0.813,0.526
		c0.348,0.213,0.728,0.353,1.113,0.476c0.549,0.174,1.112,0.258,1.688,0.24c0.53-0.018,1.043-0.125,1.545-0.294
		c0.506-0.17,0.973-0.412,1.41-0.719c0.217-0.151,0.445-0.288,0.666-0.435c0.176-0.119,0.363-0.162,0.576-0.146
		c0.609,0.043,1.172,0.216,1.679,0.56c0.376,0.254,0.666,0.592,0.911,0.969c0.384,0.588,0.634,1.232,0.799,1.911
		c0.166,0.682,0.281,1.372,0.315,2.072c0.021,0.407,0.036,0.814,0.03,1.221c-0.01,0.6-0.156,1.164-0.514,1.659
		c-0.406,0.565-0.963,0.908-1.636,1.069c-0.305,0.073-0.614,0.101-0.927,0.101C27.695,21.945,26.001,21.945,24.308,21.944
		C24.308,21.945,24.308,21.945,24.308,21.944z"/>
	<path class="color-stroke" fill-rule="evenodd" clip-rule="evenodd" fill="none" stroke="#FFFFFF" stroke-width="1.5" stroke-miterlimit="10" d="
		M28.793,7.566c0.045,2.406-2.016,4.46-4.408,4.417c-2.391,0.049-4.431-1.996-4.43-4.416c0-2.415,2.034-4.461,4.426-4.413
		C26.781,3.108,28.837,5.17,28.793,7.566z"/>
</g>
</svg>
