
<svg version="1.1" id="Layer_1" xmlns="http://www.w3.org/2000/svg" xmlns:xlink="http://www.w3.org/1999/xlink" x="0px" y="0px"
	 viewBox="0 0 50 50" enable-background="new 0 0 50 50" xml:space="preserve">
<g>
	<path class="color-stroke" fill-rule="evenodd" clip-rule="evenodd" fill="none" stroke="#FFFFFF" stroke-width="1.6" stroke-miterlimit="10" d="
		M19.22,18.396c2.08-4.128,6.126-5.692,9.623-5.093c2.253,0.386,4.104,1.473,5.538,3.241c1.43,1.765,2.098,3.809,2.055,6.039
		c0.661,0.133,1.299,0.203,1.901,0.392c2.813,0.881,4.669,3.638,4.483,6.604c-0.189,3.018-2.387,5.529-5.316,6.033
		c-0.586,0.1-1.193,0.098-1.791,0.098c-6.883,0.008-13.764-0.006-20.646,0.01c-4.278,0.008-7.541-3.326-7.258-7.59
		c0.193-2.901,1.726-4.958,4.396-6.138c0.201-0.089,0.336-0.171,0.391-0.416c0.648-2.839,3.707-4.491,6.46-3.235
		C19.102,18.362,19.151,18.373,19.22,18.396z"/>
</g>
</svg>
