
<svg version="1.1" id="Layer_1" xmlns="http://www.w3.org/2000/svg" xmlns:xlink="http://www.w3.org/1999/xlink" x="0px" y="0px"  viewBox="0 0 50 50" enable-background="new 0 0 50 50" xml:space="preserve">
<g>
	<path class="color-stroke" fill-rule="evenodd" clip-rule="evenodd" fill="none" stroke="#FFFFFF" stroke-width="1.6" stroke-miterlimit="10" d="
		M24.778,41.193c-2.956,0-5.912,0.004-8.868-0.002c-0.872-0.002-1.722-0.148-2.516-0.527c-1.47-0.703-2.356-1.863-2.671-3.461
		c-0.121-0.617-0.131-1.238-0.106-1.861c0.028-0.68,0.046-1.361,0.114-2.037c0.17-1.652,0.469-3.281,1.125-4.822
		c0.381-0.891,0.863-1.719,1.527-2.436c0.826-0.89,1.852-1.415,3.035-1.636c0.352-0.065,0.714-0.075,1.07-0.109
		c0.16-0.016,0.311,0.017,0.446,0.099c0.289,0.173,0.578,0.344,0.86,0.525c0.48,0.307,0.95,0.632,1.437,0.929
		c0.614,0.376,1.285,0.624,1.967,0.841c0.97,0.309,1.964,0.455,2.981,0.424c0.937-0.031,1.842-0.221,2.729-0.52
		c0.895-0.301,1.72-0.729,2.492-1.27c0.383-0.268,0.786-0.508,1.175-0.768c0.312-0.21,0.642-0.285,1.019-0.257
		c1.076,0.076,2.07,0.382,2.965,0.989c0.664,0.449,1.177,1.045,1.61,1.711c0.677,1.039,1.118,2.176,1.411,3.375
		c0.293,1.205,0.496,2.424,0.557,3.66c0.035,0.719,0.063,1.439,0.053,2.156c-0.018,1.061-0.276,2.057-0.906,2.93
		c-0.719,0.998-1.701,1.604-2.89,1.889c-0.539,0.129-1.086,0.178-1.638,0.178C30.763,41.195,27.771,41.193,24.778,41.193
		L24.778,41.193z"/>
	<path class="color-stroke" fill-rule="evenodd" clip-rule="evenodd" fill="none" stroke="#FFFFFF" stroke-width="1.6" stroke-miterlimit="10" d="
		M32.702,15.797c0.08,4.25-3.562,7.877-7.786,7.801c-4.224,0.087-7.826-3.525-7.825-7.799c0.001-4.266,3.594-7.88,7.818-7.795
		C29.149,7.924,32.779,11.564,32.702,15.797z"/>
</g>
</svg>
