
<svg version="1.1" id="Layer_1" xmlns="http://www.w3.org/2000/svg" xmlns:xlink="http://www.w3.org/1999/xlink" x="0px" y="0px"
	 viewBox="0 0 50 50" enable-background="new 0 0 50 50" xml:space="preserve">
<g>
	<path class="color-fill" fill-rule="evenodd" clip-rule="evenodd" fill="#FFFFFF" d="M23.897,9.464c0-1.062,0-2.122,0-3.262
		c2.93,1.619,5.792,3.201,8.72,4.818c-2.898,1.395-5.745,2.766-8.66,4.168c0-1.402,0-2.74,0-4.089"/>
	<path class="color-fill" fill="#FFFFFF" d="M25.263,41.777c-8.427,0-15.283-6.855-15.283-15.283S16.836,11.21,25.263,11.21V9.538
		c-9.35,0-16.955,7.606-16.955,16.956c0,9.35,7.605,16.955,16.955,16.955s16.956-7.605,16.956-16.955h-1.672
		C40.547,34.922,33.689,41.777,25.263,41.777z"/>
</g>
</svg>
